<mxfile>
    <diagram id="JVEfdRNHotEwbgKXsrmt" name="第 1 页">
        <mxGraphModel dx="734" dy="298" grid="1" gridSize="10" guides="1" tooltips="1" connect="1" arrows="1" fold="1" page="1" pageScale="1" pageWidth="827" pageHeight="1169" math="0" shadow="0">
            <root>
                <mxCell id="0"/>
                <mxCell id="1" parent="0"/>
                <mxCell id="2" value="&lt;span style=&quot;color: rgba(0 , 0 , 0 , 0) ; font-family: monospace ; font-size: 0px&quot;&gt;%3CmxGraphModel%3E%3Croot%3E%3CmxCell%20id%3D%220%22%2F%3E%3CmxCell%20id%3D%221%22%20parent%3D%220%22%2F%3E%3CmxCell%20id%3D%222%22%20value%3D%22%E5%85%A8%E5%B1%80%E6%89%A7%E8%A1%8C%E4%B8%8A%E4%B8%8B%E6%96%87%22%20style%3D%22rounded%3D0%3BwhiteSpace%3Dwrap%3Bhtml%3D1%3B%22%20vertex%3D%221%22%20parent%3D%221%22%3E%3CmxGeometry%20x%3D%22350%22%20y%3D%22270%22%20width%3D%2290%22%20height%3D%2250%22%20as%3D%22geometry%22%2F%3E%3C%2FmxCell%3E%3C%2Froot%3E%3C%2FmxGraphModel%3E&lt;/span&gt;" style="rounded=0;whiteSpace=wrap;html=1;" vertex="1" parent="1">
                    <mxGeometry x="330" y="30" width="420" height="580" as="geometry"/>
                </mxCell>
                <mxCell id="3" value="调用栈" style="text;html=1;align=center;verticalAlign=middle;resizable=0;points=[];autosize=1;" vertex="1" parent="1">
                    <mxGeometry x="280" y="220" width="50" height="20" as="geometry"/>
                </mxCell>
                <mxCell id="4" value="全局执行上下文" style="rounded=0;whiteSpace=wrap;html=1;" vertex="1" parent="1">
                    <mxGeometry x="450" y="540" width="200" height="50" as="geometry"/>
                </mxCell>
                <mxCell id="5" value="&lt;div&gt;&lt;span&gt;foo函数执行上下文&lt;/span&gt;&lt;/div&gt;" style="rounded=0;whiteSpace=wrap;html=1;align=left;" vertex="1" parent="1">
                    <mxGeometry x="400" y="50" width="280" height="440" as="geometry"/>
                </mxCell>
                <mxCell id="7" value="变量环境" style="rounded=0;whiteSpace=wrap;html=1;" vertex="1" parent="1">
                    <mxGeometry x="430" y="170" width="90" height="190" as="geometry"/>
                </mxCell>
                <mxCell id="8" value="语法环境" style="rounded=0;whiteSpace=wrap;html=1;" vertex="1" parent="1">
                    <mxGeometry x="570" y="240" width="90" height="120" as="geometry"/>
                </mxCell>
                <mxCell id="9" value="&lt;h6&gt;a 浩楠&lt;/h6&gt;&lt;h6&gt;d undefined&lt;/h6&gt;&lt;h6&gt;c 1003&lt;/h6&gt;&lt;h6&gt;b 浩楠&lt;br&gt;&lt;/h6&gt;&lt;h6&gt;a 浩楠&lt;br&gt;&lt;/h6&gt;&lt;h6&gt;&lt;br&gt;&lt;/h6&gt;" style="rounded=0;whiteSpace=wrap;html=1;align=center;" vertex="1" parent="1">
                    <mxGeometry x="440" y="290" width="70" height="50" as="geometry"/>
                </mxCell>
                <mxCell id="13" value="1004 c" style="rounded=0;whiteSpace=wrap;html=1;" vertex="1" parent="1">
                    <mxGeometry x="820" y="50" width="120" height="370" as="geometry"/>
                </mxCell>
                <mxCell id="15" value="Text" style="text;html=1;strokeColor=none;fillColor=none;align=center;verticalAlign=middle;whiteSpace=wrap;rounded=0;" vertex="1" parent="1">
                    <mxGeometry x="720" y="290" width="40" height="20" as="geometry"/>
                </mxCell>
                <mxCell id="16" value="堆空间" style="text;html=1;strokeColor=none;fillColor=none;align=center;verticalAlign=middle;whiteSpace=wrap;rounded=0;" vertex="1" parent="1">
                    <mxGeometry x="860" y="450" width="40" height="20" as="geometry"/>
                </mxCell>
                <mxCell id="18" value="closure(foo)" style="rounded=0;whiteSpace=wrap;html=1;" vertex="1" parent="1">
                    <mxGeometry x="810" y="330" width="120" height="60" as="geometry"/>
                </mxCell>
            </root>
        </mxGraphModel>
    </diagram>
</mxfile>